<?xml version="1.0" standalone="no"?>
<!DOCTYPE svg PUBLIC "-//W3C//DTD SVG 20010904//EN"
 "http://www.w3.org/TR/2001/REC-SVG-20010904/DTD/svg10.dtd">
<svg version="1.0" xmlns="http://www.w3.org/2000/svg"
 width="314.000000pt" height="297.000000pt" viewBox="0 0 314.000000 297.000000"
 preserveAspectRatio="xMidYMid meet">
<metadata>
Created by potrace 1.15, written by Peter Selinger 2001-2017
</metadata>
<g transform="translate(0.000000,297.000000) scale(0.100000,-0.100000)"
fill="#000000" stroke="none">
<path d="M176 2793 c-9 -9 -7 -761 2 -766 8 -5 822 375 822 383 0 3 -125 63
-278 134 -152 72 -336 158 -409 192 -72 34 -134 60 -137 57z"/>
<path d="M1740 2724 c-112 -30 -237 -127 -399 -306 -56 -62 -101 -114 -101
-117 0 -3 24 -27 54 -53 l54 -47 93 104 c147 164 257 253 343 276 73 20 110
-4 311 -201 203 -199 240 -223 341 -223 128 -1 254 96 433 332 l80 105 -60 44
c-33 25 -64 41 -68 36 -4 -5 -42 -55 -85 -111 -101 -133 -212 -238 -266 -253
-64 -17 -108 10 -246 153 -66 67 -143 143 -173 170 -102 89 -207 120 -311 91z"/>
<path d="M176 1853 c-9 -9 -7 -761 2 -766 8 -5 822 375 822 383 0 3 -125 63
-278 134 -152 72 -336 158 -409 192 -72 34 -134 60 -137 57z"/>
<path d="M1740 1724 c-112 -30 -237 -127 -399 -306 -56 -62 -101 -114 -101
-117 0 -3 24 -27 54 -53 l54 -47 93 104 c147 164 257 253 343 276 73 20 110
-4 311 -201 203 -199 240 -223 341 -223 128 -1 254 96 433 332 l80 105 -60 44
c-33 25 -64 41 -68 36 -4 -5 -42 -55 -85 -111 -101 -133 -212 -238 -266 -253
-64 -17 -108 10 -246 153 -66 67 -143 143 -173 170 -102 89 -207 120 -311 91z"/>
<path d="M176 893 c-9 -9 -7 -761 2 -766 8 -5 822 375 822 383 0 3 -125 63
-278 134 -152 72 -336 158 -409 192 -72 34 -134 60 -137 57z"/>
<path d="M1740 824 c-112 -30 -237 -127 -399 -306 -56 -62 -101 -114 -101
-117 0 -3 24 -27 54 -53 l54 -47 93 104 c147 164 257 253 343 276 73 20 110
-4 311 -201 203 -199 240 -223 341 -223 128 -1 254 96 433 332 l80 105 -60 44
c-33 25 -64 41 -68 36 -4 -5 -42 -55 -85 -111 -101 -133 -212 -238 -266 -253
-64 -17 -108 10 -246 153 -66 67 -143 143 -173 170 -102 89 -207 120 -311 91z"/>
</g>
</svg>
